<svg xmlns="http://www.w3.org/2000/svg" xmlns:xlink="http://www.w3.org/1999/xlink" width="200" zoomAndPan="magnify" viewBox="0 0 150 74.999997" height="100" preserveAspectRatio="xMidYMid meet" version="1.0"><defs><g/></defs><g fill="#272424" fill-opacity="1"><g transform="translate(112.559243, 30.582483)"><g><path d="M 0.00390625 -9.511719 L 1.890625 -9.84375 L 1.179688 -9.164062 C 1.527344 -8.824219 1.816406 -8.5625 2.105469 -8.285156 L -0.414062 -7.839844 L -0.148438 -6.328125 L 4.910156 -7.222656 L 5.363281 -4.644531 L 6.277344 -4.808594 L 5.359375 -3.617188 C 5.847656 -3.273438 7.171875 -2.253906 7.625 -1.875 L 8.699219 -3.234375 L 6.429688 -4.835938 L 7.109375 -4.953125 L 6.652344 -7.53125 L 11.847656 -8.449219 L 11.582031 -9.957031 L 9.128906 -9.523438 C 9.292969 -9.882812 9.488281 -10.230469 9.710938 -10.667969 L 8.785156 -11.0625 C 10.097656 -11.394531 10.476562 -12.320312 10.28125 -13.425781 L 8.46875 -13.105469 C 8.523438 -12.789062 8.414062 -12.609375 7.898438 -12.519531 L -0.269531 -11.078125 Z M 10.125 -2.101562 L 5.734375 -1.328125 C 5.195312 -1.230469 5.09375 -1.3125 5 -1.855469 L 4.667969 -3.738281 L 2.949219 -3.433594 L 3.398438 -0.898438 C 3.59375 0.207031 4.15625 0.566406 5.484375 0.332031 L 10.402344 -0.539062 Z M 9.332031 -7.730469 L 7.613281 -7.429688 L 7.640625 -7.203125 C 7.941406 -5.488281 9.027344 -4.9375 12.167969 -5.492188 L 12.460938 -5.542969 L 12.195312 -7.039062 L 11.835938 -6.976562 C 10.296875 -6.703125 9.46875 -6.871094 9.363281 -7.480469 Z M 2.4375 -6.257812 C 2.542969 -5.648438 1.824219 -5.207031 0.285156 -4.933594 L -0.0625 -4.875 L 0.203125 -3.378906 L 0.492188 -3.429688 C 3.652344 -3.988281 4.453125 -4.871094 4.148438 -6.589844 L 4.097656 -6.808594 L 2.378906 -6.503906 Z M 13.035156 -2.375 C 12.441406 -3.140625 11.390625 -4.398438 10.730469 -5.152344 L 9.382812 -4.128906 C 9.996094 -3.40625 11.007812 -2.128906 11.613281 -1.28125 Z M 1.050781 -3.269531 C 0.964844 -2.226562 0.773438 -0.949219 0.464844 0.132812 L 2.164062 0.445312 C 2.441406 -0.574219 2.699219 -1.949219 2.773438 -3.144531 Z M 7.730469 -9.277344 L 6.386719 -9.039062 L 6.113281 -10.589844 L 8.023438 -10.929688 C 7.8125 -10.503906 7.566406 -10.046875 7.265625 -9.480469 Z M 3.886719 -8.882812 C 3.398438 -9.3125 3.007812 -9.65625 2.664062 -9.980469 L 4.367188 -10.28125 L 4.640625 -8.730469 L 3.519531 -8.535156 Z M 3.886719 -8.882812 "/></g></g></g><g fill="#272424" fill-opacity="1"><g transform="translate(126.401084, 28.137885)"><g><path d="M 0.0351562 -11.273438 L 1.457031 -3.226562 C 1.730469 -1.691406 1.710938 -0.914062 1.058594 -0.800781 L 0.65625 -0.730469 L 0.960938 1 L 1.335938 0.933594 C 3.398438 0.570312 3.707031 -0.855469 3.21875 -3.609375 L 2.667969 -6.726562 L 9.664062 -7.960938 L 9.710938 -7.683594 L 11.484375 -7.996094 L 10.898438 -11.308594 C 10.734375 -12.25 10.066406 -12.703125 8.902344 -12.496094 L 1.867188 -11.253906 L 1.808594 -11.585938 Z M 10.757812 -7.328125 C 9.066406 -6.328125 7.578125 -5.523438 6.035156 -4.808594 L 5.660156 -6.925781 L 3.832031 -6.605469 L 4.664062 -1.894531 C 4.957031 -0.234375 5.523438 0.222656 7.144531 -0.0625 L 12.835938 -1.066406 L 12.539062 -2.757812 L 7.121094 -1.800781 C 6.664062 -1.71875 6.5625 -1.828125 6.484375 -2.257812 L 6.347656 -3.035156 C 8.207031 -3.820312 10.09375 -4.78125 11.710938 -5.738281 Z M 9.15625 -10.828125 L 9.371094 -9.609375 L 2.378906 -8.375 L 2.160156 -9.59375 Z M 9.15625 -10.828125 "/></g></g></g><g fill="#272424" fill-opacity="1"><g transform="translate(140.242877, 25.693295)"><g/></g></g><g fill="#272424" fill-opacity="1"><g transform="translate(11.482841, 66.843041)"><g><path d="M 17.902344 -32.941406 C 18.691406 -31.472656 16.820312 -22.929688 15.234375 -15.605469 C 12.644531 -20.285156 10.207031 -26.972656 9.015625 -29.550781 C 7.8125 -33.269531 0.878906 -32.351562 1.628906 -30.730469 C 2.863281 -28.261719 -3.234375 -5.167969 -2.886719 -2.0625 C -2.722656 -0.882812 -2.136719 0.0546875 -0.65625 0.410156 C 1.691406 1.03125 5.234375 -0.453125 5.03125 -1.03125 C 4.234375 -3.09375 4.742188 -7.675781 5.664062 -12.046875 C 6.023438 -14.023438 6.503906 -16.261719 6.914062 -18.242188 C 6.980469 -18.050781 7.050781 -17.855469 7.109375 -17.761719 C 10.777344 -11.195312 11.785156 -6.410156 13.394531 -3.625 C 13.992188 -2.589844 14.582031 -2.148438 15.242188 -2.011719 C 15.34375 -2.019531 15.449219 -1.933594 15.5 -1.9375 C 17.851562 -1.316406 21.441406 -2.804688 21.199219 -3.28125 C 20.402344 -5.34375 20.863281 -9.375 21.738281 -13.738281 C 23.035156 -19.941406 24.855469 -26.886719 25.285156 -29.667969 C 26.417969 -35.503906 17.136719 -34.660156 17.902344 -32.941406 Z M 17.902344 -32.941406 "/></g></g></g><g fill="#272424" fill-opacity="1"><g transform="translate(39.655572, 64.137804)"><g><path d="M -0.402344 -19.730469 C 0.984375 -17.226562 -3.296875 -5.808594 -2.9375 -2.605469 C -2.789062 -1.574219 -2.207031 -0.683594 -0.722656 -0.277344 C 1.632812 0.390625 5.664062 -1.191406 5.363281 -1.710938 C 4.566406 -3.773438 4.976562 -7.300781 5.675781 -10.902344 C 6.179688 -13.441406 7.03125 -15.964844 7.121094 -17.117188 C 8.21875 -22.800781 -1.175781 -21.597656 -0.402344 -19.730469 Z M 5.058594 -30.3125 C 2.566406 -30.324219 0.464844 -28.878906 0.296875 -26.96875 C 0.230469 -25.070312 2.191406 -23.316406 4.644531 -23.203125 C 7.101562 -23.039062 9.191406 -24.585938 9.304688 -26.539062 C 9.375 -28.386719 7.523438 -30.054688 5.058594 -30.3125 Z M 5.058594 -30.3125 "/></g></g></g><g fill="#272424" fill-opacity="1"><g transform="translate(51.496997, 63.000753)"><g><path d="M 12.144531 -22.878906 C 6.589844 -22.644531 -1.191406 -20.203125 -1.296875 -15.0625 C -1.265625 -13.175781 0.210938 -11.820312 2.035156 -10.953125 C 3.980469 -9.894531 6.003906 -9.042969 7.675781 -8.207031 C 9.128906 -7.597656 10.074219 -7.09375 10.125 -6.050781 C 10.140625 -5.355469 8.691406 -4.371094 6.839844 -4.492188 C 4.601562 -4.476562 2.921875 -5.359375 2.796875 -6.144531 C 2.683594 -6.78125 3.003906 -7.109375 3.398438 -7.648438 C 3.675781 -7.871094 3.628906 -8.367188 3.269531 -8.480469 C 1.5625 -9.660156 -2.347656 -8.886719 -2.976562 -6.089844 C -3.765625 -2.378906 -0.304688 0.476562 6.332031 0.0898438 C 12.421875 -0.296875 15.761719 -2.859375 16.144531 -5.085938 C 16.375 -7.347656 15.25 -8.683594 13.496094 -9.859375 C 10.945312 -11.507812 8.660156 -12.484375 7.394531 -13.210938 C 6.871094 -13.507812 5.65625 -14.238281 5.410156 -15.210938 C 4.835938 -17.046875 6.257812 -19.375 10.046875 -19.839844 C 11.320312 -20.058594 11.914062 -19.570312 11.578125 -18.9375 C 10.265625 -16.523438 9.582031 -15.859375 10.144531 -14.667969 C 11.308594 -12.390625 15.429688 -11.988281 16.507812 -13.734375 C 15.628906 -15.644531 17.136719 -17.03125 17.402344 -19.449219 C 17.625 -21.3125 15.679688 -22.867188 12.144531 -22.878906 Z M 12.144531 -22.878906 "/></g></g></g><g fill="#272424" fill-opacity="1"><g transform="translate(73.94637, 60.845092)"><g><path d="M 10.0625 -22.28125 C 9.355469 -22.359375 8.644531 -22.492188 8.003906 -22.429688 C 7.65625 -22.445312 7.40625 -22.421875 7.117188 -22.34375 C 2.703125 -21.621094 -1.5 -17.683594 -2.726562 -12.835938 C -4.339844 -6.804688 -1.601562 -1.140625 3.8125 -0.21875 C 7.46875 0.527344 12.03125 -0.707031 14.007812 -3.484375 C 15.410156 -5.464844 14.863281 -7.003906 13.78125 -7.398438 C 12.902344 -7.710938 11.890625 -7.367188 11.546875 -6.785156 C 10.515625 -5.09375 8.570312 -4.609375 6.910156 -4.796875 C 5.832031 -5.140625 3.371094 -6.398438 3.492188 -10.296875 C 3.5 -10.742188 3.519531 -11.042969 3.53125 -11.445312 C 4.839844 -10.273438 7.074219 -9.84375 7.628906 -9.746094 C 10.253906 -9.398438 14.027344 -10.011719 15.554688 -12.796875 C 17.78125 -16.546875 15.753906 -21.582031 10.0625 -22.28125 Z M 9.742188 -14.183594 C 9.09375 -13.671875 8.265625 -13.492188 7.476562 -13.417969 C 6.191406 -13.292969 4.128906 -14.042969 4.128906 -14.042969 C 5.082031 -17.070312 6.976562 -19.144531 8.605469 -19.300781 C 9.640625 -19.402344 10.292969 -18.816406 10.652344 -18.203125 C 11.203125 -17.109375 11.015625 -14.949219 9.742188 -14.183594 Z M 9.742188 -14.183594 "/></g></g></g><g fill="#272424" fill-opacity="1"><g transform="translate(94.422169, 58.87894)"><g><path d="M 17.714844 -20.875 C 17.007812 -22.546875 14.832031 -23.433594 13.347656 -22.792969 C 13.207031 -20.640625 9.773438 -18.515625 6.363281 -16.695312 C 7.367188 -21.273438 8.613281 -25.425781 9.015625 -27.457031 C 10 -33.277344 0.375 -32.40625 1.289062 -30.648438 C 2.523438 -28.179688 -3.261719 -4.914062 -2.953125 -2.753906 C -2.796875 -1.625 -2.210938 -0.734375 -0.730469 -0.328125 C 1.621094 0.292969 4.84375 -0.914062 4.589844 -1.484375 C 3.941406 -3.019531 4.085938 -5.671875 4.621094 -8.910156 C 7.175781 -5.121094 8.957031 -2.15625 10.246094 -1.183594 C 11.046875 -0.613281 12.488281 -0.105469 14.136719 -0.5625 C 16.863281 -1.222656 18.125 -4.179688 17.550781 -4.425781 C 13.808594 -5.558594 10.496094 -8.925781 8.070312 -12.425781 C 10.539062 -13.164062 13.210938 -14.367188 14.527344 -15.1875 C 17.183594 -17.085938 18.476562 -19.152344 17.714844 -20.875 Z M 17.714844 -20.875 "/></g></g></g><g fill="#272424" fill-opacity="1"><g transform="translate(116.772867, 56.732754)"><g><path d="M 10.160156 -22.289062 C 9.402344 -22.414062 8.691406 -22.546875 8.050781 -22.484375 C 7.703125 -22.453125 7.40625 -22.421875 7.160156 -22.398438 C 2.644531 -21.714844 -1.566406 -17.875 -2.835938 -12.925781 C -4.4375 -6.792969 -1.191406 -0.980469 4.429688 -0.0273438 C 9.90625 0.992188 15.664062 -3.347656 17.269531 -9.425781 C 18.96875 -15.613281 15.726562 -21.378906 10.160156 -22.289062 Z M 9.304688 -6.820312 C 7.804688 -3.238281 5.621094 -2.132812 4.371094 -4.253906 C 3.269531 -6.390625 3.671875 -12.054688 5.226562 -15.589844 C 6.25 -17.878906 7.519531 -19.195312 8.613281 -19.203125 C 8.8125 -19.222656 8.914062 -19.179688 9.027344 -19.042969 C 9.484375 -18.9375 9.859375 -18.675781 10.113281 -18.101562 C 11.269531 -15.921875 10.859375 -10.355469 9.304688 -6.820312 Z M 9.304688 -6.820312 "/></g></g></g><g fill="#272424" fill-opacity="1"><g transform="translate(139.558313, 54.544822)"><g/></g></g></svg>